<?xml version="1.0" standalone="no"?>
<!DOCTYPE svg PUBLIC "-//W3C//DTD SVG 20010904//EN"
 "http://www.w3.org/TR/2001/REC-SVG-20010904/DTD/svg10.dtd">
<svg version="1.0" xmlns="http://www.w3.org/2000/svg"
 width="551.000000pt" height="551.000000pt" viewBox="0 0 551.000000 551.000000"
 preserveAspectRatio="xMidYMid meet">
<metadata>
Created by potrace 1.14, written by Peter Selinger 2001-2017
</metadata>
<g transform="translate(0.000000,551.000000) scale(0.100000,-0.100000)"
fill="#000000" stroke="none">
<path d="M1377 2798 l-1376 -2383 1381 -3 c759 -1 1998 -1 2754 0 l1374 3
-1371 2375 c-754 1306 -1374 2379 -1379 2383 -4 4 -626 -1064 -1383 -2375z
m2381 -224 c540 -935 984 -1708 988 -1717 6 -16 -122 -17 -1991 -17 -1735 0
-1996 2 -1992 14 5 13 1782 3094 1935 3354 44 77 57 91 67 80 6 -7 453 -778
993 -1714z"/>
</g>
</svg>
